<svg id="svg" version="1.1" xmlns="http://www.w3.org/2000/svg" xmlns:xlink="http://www.w3.org/1999/xlink" width="400" height="350" viewBox="0, 0, 400,350"><g id="svgg"><path id="path0" d="M89.371 15.498 C 89.149 15.720,88.967 16.644,88.967 17.550 C 88.967 19.021,88.892 19.179,88.272 19.017 C 87.376 18.783,86.728 20.351,87.039 22.005 C 87.459 24.249,86.891 26.950,85.949 27.187 C 85.119 27.395,85.114 27.429,85.114 32.239 L 85.114 37.081 84.151 37.192 L 83.187 37.303 83.088 41.243 C 82.998 44.853,82.933 45.184,82.321 45.184 C 81.292 45.184,81.162 45.685,81.056 50.053 C 81.002 52.287,80.947 54.313,80.934 54.553 C 80.921 54.794,80.612 54.991,80.248 54.991 C 79.315 54.991,79.159 55.635,79.159 59.497 L 79.159 62.894 78.109 63.290 L 77.058 63.687 77.058 68.423 L 77.058 73.158 76.095 73.269 L 75.131 73.380 75.033 77.298 C 74.938 81.037,74.898 81.220,74.160 81.326 C 73.230 81.458,72.720 83.903,73.060 86.596 C 73.381 89.138,72.961 91.004,72.039 91.135 C 71.317 91.238,71.273 91.442,71.180 95.164 C 71.089 98.747,71.020 99.104,70.371 99.309 C 69.289 99.653,69.002 100.905,69.002 105.277 L 69.002 109.282 68.150 109.282 C 67.069 109.282,66.980 109.662,67.033 114.064 C 67.056 116.020,66.980 117.562,66.864 117.491 C 65.823 116.849,65.321 118.440,65.208 122.738 C 65.128 125.760,64.963 127.162,64.682 127.199 C 64.457 127.228,64.037 127.267,63.748 127.286 C 63.318 127.314,63.201 128.111,63.105 131.684 C 62.988 136.005,62.572 137.303,61.305 137.303 C 61.176 137.303,61.082 138.907,61.096 140.868 C 61.122 144.456,60.848 145.359,59.733 145.359 C 59.169 145.359,58.641 151.525,59.014 153.736 C 59.257 155.175,58.938 155.458,57.356 155.208 C 57.211 155.185,57.093 156.969,57.093 159.171 L 57.093 163.176 56.130 163.287 L 55.166 163.398 55.069 168.354 C 54.979 172.988,54.930 173.298,54.321 173.139 C 53.331 172.880,53.087 173.616,53.027 177.058 C 52.996 178.792,52.953 180.390,52.930 180.610 C 52.908 180.830,52.487 181.111,51.995 181.234 C 51.175 181.440,51.110 181.594,51.207 183.088 C 51.355 185.349,51.063 185.313,68.476 185.247 C 76.760 185.216,87.901 185.213,93.233 185.240 L 102.929 185.289 103.040 186.077 C 103.150 186.847,103.269 186.867,108.121 186.962 L 113.090 187.059 113.200 188.013 L 113.310 188.967 118.126 189.064 C 121.596 189.134,122.957 189.281,122.996 189.590 C 123.025 189.825,123.064 190.254,123.083 190.543 C 123.110 190.951,123.781 191.107,126.095 191.243 C 128.780 191.401,129.072 191.487,129.072 192.119 C 129.072 192.759,129.339 192.828,132.137 192.921 L 135.201 193.022 135.201 194.059 L 135.201 195.096 138.155 195.096 L 141.109 195.096 141.220 196.060 C 141.330 197.013,141.359 197.024,144.199 197.124 C 147.028 197.224,147.068 197.238,147.176 198.175 C 147.277 199.055,147.418 199.132,149.102 199.229 C 150.669 199.320,150.934 199.441,151.029 200.105 C 151.130 200.814,151.378 200.890,154.116 201.051 C 157.010 201.221,157.093 201.250,157.096 202.102 C 157.098 202.921,157.227 202.984,159.110 203.082 C 161.079 203.185,161.121 203.209,161.121 204.221 C 161.121 205.240,161.148 205.254,163.047 205.254 C 164.869 205.254,164.974 205.302,164.974 206.130 C 164.974 206.966,165.067 207.005,167.075 207.005 C 169.166 207.005,169.177 207.010,169.177 208.033 C 169.177 208.893,169.333 209.078,170.140 209.171 C 170.814 209.249,171.136 209.508,171.211 210.034 C 171.326 210.844,172.164 211.196,173.993 211.204 C 174.959 211.208,175.131 211.335,175.131 212.047 C 175.131 213.019,175.703 213.310,177.612 213.310 C 178.842 213.310,178.984 213.401,178.984 214.186 C 178.984 214.925,179.148 215.061,180.035 215.061 C 180.920 215.061,181.086 215.198,181.086 215.930 C 181.086 216.852,181.533 217.062,183.888 217.243 C 184.871 217.319,185.101 217.476,185.051 218.033 C 184.942 219.253,187.870 219.850,188.751 218.788 C 189.568 217.803,189.108 36.124,188.287 35.523 C 187.913 35.250,187.017 35.026,186.296 35.026 C 185.126 35.026,184.973 34.923,184.874 34.063 C 184.783 33.267,184.597 33.103,183.800 33.119 C 182.974 33.136,182.837 32.999,182.837 32.156 C 182.837 31.198,182.788 31.173,180.911 31.173 C 179.004 31.173,178.984 31.163,178.984 30.123 C 178.984 29.085,178.960 29.072,177.102 29.072 C 175.290 29.072,175.211 29.032,175.009 28.021 C 174.806 27.008,174.731 26.970,172.888 26.970 C 171.176 26.970,170.965 26.888,170.865 26.187 C 170.732 25.253,168.832 24.784,166.462 25.100 C 164.987 25.297,164.974 25.289,164.974 24.208 L 164.974 23.117 162.020 23.117 L 159.066 23.117 158.955 22.154 C 158.845 21.195,158.832 21.190,155.802 21.090 C 152.997 20.997,152.751 20.931,152.650 20.238 C 152.504 19.246,151.531 19.027,147.417 19.063 C 145.010 19.084,144.090 18.977,144.201 18.689 C 144.644 17.533,142.867 17.163,136.866 17.163 C 131.001 17.163,130.980 17.160,130.666 16.335 C 130.493 15.880,130.081 15.403,129.750 15.276 C 128.620 14.843,89.813 15.055,89.371 15.498 M253.063 16.121 L 252.834 17.163 246.038 17.163 L 239.243 17.163 239.023 18.039 C 238.877 18.619,238.550 18.923,238.053 18.939 C 237.641 18.953,235.781 19.000,233.921 19.044 C 230.531 19.123,229.422 19.490,229.422 20.533 C 229.422 20.907,228.714 21.016,226.270 21.016 L 223.117 21.016 223.117 22.067 L 223.117 23.117 220.140 23.117 L 217.163 23.117 217.163 24.199 C 217.163 25.250,217.125 25.275,215.849 25.087 C 213.799 24.785,211.790 25.274,211.395 26.170 C 211.114 26.808,210.723 26.957,209.118 27.043 C 207.294 27.139,207.174 27.202,207.070 28.109 C 206.965 29.020,205.453 29.435,203.415 29.113 C 203.271 29.090,203.152 29.545,203.152 30.123 C 203.152 31.152,203.117 31.173,201.371 31.173 C 199.706 31.173,199.562 31.243,199.185 32.243 C 198.890 33.026,198.609 33.268,198.138 33.144 C 197.669 33.022,197.398 33.250,197.144 33.980 C 196.927 34.601,196.503 35.026,196.033 35.093 C 195.497 35.169,195.239 35.487,195.161 36.165 C 195.068 36.971,194.883 37.128,194.022 37.128 L 192.993 37.128 193.082 128.109 L 193.170 219.089 195.009 219.195 C 196.842 219.301,196.848 219.298,196.848 218.249 C 196.848 217.215,196.880 217.196,198.862 217.093 C 200.768 216.993,200.882 216.936,200.986 216.025 C 201.084 215.179,201.247 215.061,202.317 215.061 C 203.154 215.061,203.780 214.798,204.315 214.220 C 204.744 213.758,205.485 213.325,205.962 213.257 C 206.606 213.166,206.858 212.891,206.939 212.189 C 207.040 211.313,207.183 211.236,208.866 211.138 C 210.557 211.041,210.691 210.967,210.794 210.070 C 210.887 209.263,211.072 209.107,211.932 209.107 C 212.840 209.107,212.960 208.985,212.960 208.056 C 212.960 207.015,212.978 207.005,214.974 206.968 C 218.212 206.908,218.372 206.869,218.735 206.042 C 218.938 205.578,219.389 205.254,219.829 205.254 C 221.763 205.254,222.767 204.826,222.767 204.002 C 222.767 203.256,222.937 203.178,224.781 203.082 C 226.688 202.983,226.801 202.926,226.906 202.014 C 227.011 201.098,227.108 201.051,228.882 201.051 C 230.714 201.051,231.523 200.498,230.979 199.618 C 230.870 199.443,231.461 199.287,232.291 199.271 C 235.370 199.212,236.778 198.718,236.778 197.698 C 236.778 197.377,237.404 197.200,238.792 197.128 C 240.691 197.029,240.812 196.969,240.915 196.073 C 241.023 195.137,241.063 195.123,243.892 195.023 C 246.732 194.922,246.761 194.912,246.871 193.958 L 246.982 192.995 249.936 192.995 C 252.840 192.995,252.890 192.980,252.890 192.133 C 252.890 191.296,252.971 191.269,255.779 191.170 C 258.635 191.069,258.670 191.057,258.779 190.115 L 258.889 189.161 263.858 189.064 L 268.827 188.967 268.937 188.004 L 269.048 187.040 273.922 187.040 L 278.796 187.040 279.016 186.165 L 279.235 185.289 288.917 185.244 C 294.242 185.220,305.849 185.181,314.711 185.157 L 330.823 185.114 330.823 182.312 C 330.823 179.515,330.821 179.509,329.860 179.399 L 328.897 179.288 328.897 175.283 L 328.897 171.278 328.021 171.278 C 327.151 171.278,327.145 171.256,327.128 168.039 C 327.095 162.086,326.901 161.121,325.735 161.121 C 325.123 161.121,325.058 160.790,324.968 157.180 L 324.869 153.240 323.915 153.130 L 322.962 153.020 322.864 148.226 L 322.767 143.433 321.804 143.322 L 320.841 143.211 320.841 139.206 L 320.841 135.201 319.965 135.201 L 319.089 135.201 319.089 131.392 C 319.089 126.465,318.893 125.509,317.825 125.241 C 317.006 125.035,316.988 124.949,316.988 121.175 L 316.988 117.320 315.947 117.112 L 314.906 116.904 314.808 112.305 C 314.715 107.916,314.675 107.690,313.923 107.360 C 313.204 107.045,312.721 103.528,313.110 101.438 C 313.213 100.884,312.740 99.141,312.496 99.174 C 311.085 99.370,311.034 99.236,310.998 95.184 C 310.957 90.471,310.747 89.531,309.705 89.380 C 308.959 89.272,308.932 89.127,308.932 85.265 L 308.932 81.261 307.881 81.261 L 306.830 81.261 306.830 77.035 C 306.830 72.779,306.536 71.454,305.592 71.454 C 305.173 71.454,305.079 70.759,305.079 67.671 C 305.079 63.769,304.849 63.047,303.608 63.047 C 303.039 63.047,302.977 62.674,302.977 59.260 L 302.977 55.473 301.926 54.696 L 300.876 53.919 300.876 49.552 L 300.876 45.184 300.000 45.184 C 299.193 45.184,298.643 41.278,299.095 38.755 C 299.246 37.912,298.658 37.128,297.875 37.128 L 297.023 37.128 297.023 32.469 C 297.023 27.661,296.838 26.970,295.552 26.970 C 294.983 26.970,294.921 26.594,294.921 23.117 C 294.921 20.817,294.780 19.243,294.571 19.212 C 294.378 19.183,294.024 19.144,293.783 19.124 C 293.537 19.105,293.191 18.243,292.995 17.163 L 292.644 15.236 272.968 15.158 L 253.292 15.080 253.063 16.121 M51.331 43.356 C 51.225 43.463,51.138 45.719,51.138 48.371 L 51.138 53.193 50.175 53.304 L 49.212 53.415 49.115 58.179 C 49.019 62.866,49.004 62.950,48.152 63.338 C 47.167 63.787,47.219 63.481,47.111 69.505 C 47.034 73.868,46.998 74.062,46.153 74.759 C 45.321 75.444,45.263 75.729,45.037 80.200 C 44.804 84.842,44.576 85.612,43.552 85.219 C 43.173 85.074,43.082 86.018,43.082 90.132 L 43.082 95.225 42.119 95.336 L 41.156 95.447 40.981 100.350 C 40.826 104.685,40.738 105.243,40.219 105.157 C 39.288 105.003,39.120 105.652,39.025 109.780 C 38.976 111.914,38.924 114.004,38.908 114.424 C 38.889 114.938,38.622 115.224,38.091 115.300 C 37.326 115.408,37.298 115.558,37.128 120.311 C 36.965 124.861,36.903 125.220,36.252 125.343 C 35.175 125.546,35.096 125.888,35.048 130.611 C 35.002 134.956,34.988 135.030,34.057 135.773 L 33.112 136.526 33.065 141.731 L 33.017 146.935 32.095 147.046 L 31.173 147.157 31.173 152.212 L 31.173 157.268 30.123 157.268 C 29.545 157.268,29.090 157.386,29.113 157.531 C 29.451 159.667,28.991 167.075,28.521 167.075 C 27.205 167.075,26.970 167.920,26.970 172.654 L 26.970 177.233 26.095 177.233 C 25.132 177.233,25.198 176.928,25.036 182.137 C 24.991 183.581,24.935 185.344,24.911 186.053 C 24.876 187.107,24.725 187.362,24.081 187.454 C 23.313 187.563,23.290 187.690,23.195 192.330 C 23.101 196.938,23.071 197.106,22.281 197.467 C 21.145 197.984,21.055 198.584,21.127 205.200 L 21.191 211.033 26.182 211.130 C 31.167 211.228,31.173 211.229,31.173 212.055 C 31.173 213.152,32.147 213.311,38.266 213.213 L 43.083 213.135 43.082 214.098 L 43.082 215.061 47.952 215.061 L 52.821 215.061 53.187 216.112 L 53.554 217.163 58.452 217.163 C 62.972 217.163,63.367 217.215,63.563 217.834 C 63.903 218.903,65.636 219.264,70.431 219.264 C 74.807 219.264,74.910 219.282,75.019 220.053 C 75.129 220.823,75.246 220.843,80.135 220.938 C 85.015 221.033,85.146 221.055,85.450 221.853 C 85.873 222.966,86.630 223.107,92.207 223.113 L 97.023 223.117 97.023 223.956 C 97.023 225.113,97.496 225.219,102.656 225.219 C 106.265 225.219,107.180 225.316,107.180 225.701 C 107.180 226.960,108.711 227.268,115.149 227.300 L 119.089 227.320 119.089 228.196 L 119.089 229.072 124.168 229.072 C 129.034 229.072,129.247 229.102,129.247 229.781 C 129.247 230.896,130.613 231.173,136.100 231.173 L 141.156 231.173 141.156 232.012 C 141.156 233.164,141.636 233.275,146.622 233.275 C 150.949 233.275,150.983 233.281,151.313 234.151 L 151.646 235.026 157.268 235.026 L 162.890 235.026 163.100 236.077 L 163.310 237.128 168.132 237.128 C 172.919 237.128,172.955 237.134,173.163 237.962 C 173.475 239.204,173.686 239.219,190.762 239.225 C 208.227 239.230,208.757 239.193,208.757 237.969 C 208.757 237.150,208.771 237.147,213.748 237.050 L 218.739 236.953 218.850 235.989 L 218.961 235.026 223.228 234.999 C 230.646 234.953,230.633 234.954,230.760 234.063 C 230.869 233.292,230.972 233.275,235.372 233.275 C 240.506 233.275,240.981 233.168,240.981 232.012 L 240.981 231.173 246.258 231.173 C 251.739 231.173,252.890 230.930,252.890 229.770 C 252.890 229.135,253.210 229.085,257.881 228.994 C 262.757 228.899,262.875 228.878,262.984 228.109 C 263.093 227.345,263.223 227.319,267.187 227.286 C 269.437 227.267,271.594 227.217,271.979 227.176 C 272.364 227.134,273.110 227.070,273.636 227.035 C 274.337 226.987,274.651 226.736,274.812 226.095 L 275.032 225.219 279.753 225.219 L 284.474 225.219 284.871 224.168 L 285.267 223.117 290.532 223.112 C 296.117 223.106,296.438 223.039,296.824 221.804 C 297.064 221.036,297.196 221.016,301.950 221.016 L 306.830 221.016 306.830 220.140 L 306.830 219.264 311.821 219.230 C 317.584 219.189,318.520 219.014,318.675 217.946 C 318.782 217.207,318.949 217.179,323.753 217.085 L 328.722 216.988 328.832 216.025 L 328.943 215.061 334.320 215.061 C 340.197 215.061,340.806 214.959,340.806 213.973 C 340.806 213.382,346.489 212.883,348.649 213.285 C 349.757 213.491,350.963 212.851,350.963 212.056 L 350.963 211.208 355.829 211.208 C 361.667 211.208,361.088 212.057,361.088 203.496 C 361.088 196.412,360.877 195.096,359.738 195.096 C 359.078 195.096,359.034 194.827,358.942 190.280 L 358.844 185.464 357.881 185.353 L 356.918 185.242 356.918 180.187 L 356.918 175.131 356.052 175.131 L 355.186 175.131 355.089 170.331 C 354.991 165.532,354.991 165.530,354.116 165.324 L 353.240 165.119 353.065 159.845 C 352.888 154.522,352.609 153.415,351.446 153.415 C 351.061 153.415,350.963 152.500,350.963 148.890 C 350.963 143.738,350.856 143.257,349.709 143.257 C 348.882 143.257,348.881 143.254,348.784 138.266 C 348.698 133.867,348.617 133.274,348.098 133.270 C 347.167 133.263,347.137 133.125,347.087 128.553 C 347.032 123.551,346.971 123.292,345.857 123.292 C 345.029 123.292,345.028 123.289,344.931 118.301 L 344.834 113.310 343.880 113.200 L 342.926 113.090 342.829 108.121 C 342.733 103.202,342.724 103.153,341.944 103.236 C 341.189 103.316,341.155 103.205,341.134 100.609 C 341.074 93.317,341.080 93.356,340.018 93.234 L 339.054 93.123 339.054 88.091 C 339.054 82.641,338.775 81.261,337.672 81.261 C 337.010 81.261,336.967 80.993,336.875 76.270 C 336.794 72.135,336.687 71.270,336.252 71.231 C 335.963 71.205,335.530 71.166,335.289 71.144 C 334.962 71.114,334.851 69.869,334.851 66.206 L 334.851 61.309 333.975 61.090 C 333.101 60.870,333.100 60.865,333.100 56.558 C 333.100 51.620,332.988 51.138,331.836 51.138 C 331.001 51.138,330.998 51.126,330.998 47.099 L 330.998 43.059 327.058 43.158 L 323.117 43.257 323.117 44.133 L 323.117 45.009 316.189 45.104 L 309.261 45.199 309.058 46.215 C 308.905 46.983,308.690 47.199,308.178 47.100 C 307.017 46.877,306.724 48.390,307.057 52.890 C 307.339 56.695,307.399 56.924,308.144 57.030 C 308.589 57.093,308.944 57.398,308.960 57.730 C 308.975 58.054,309.027 60.035,309.075 62.132 C 309.161 65.956,309.338 66.478,310.709 66.975 C 310.861 67.030,311.035 68.809,311.097 70.928 L 311.208 74.781 312.172 74.892 L 313.135 75.003 313.135 79.008 L 313.135 83.012 314.011 83.012 C 315.007 83.012,314.963 82.814,315.058 87.741 C 315.156 92.839,315.132 92.717,316.112 92.963 C 316.979 93.181,316.988 93.221,316.988 97.002 L 316.988 100.820 318.039 101.051 L 319.089 101.282 319.089 105.737 C 319.089 110.366,319.280 111.033,320.599 111.033 C 321.178 111.033,321.237 111.204,321.033 112.289 C 320.529 114.975,321.182 119.089,322.112 119.089 C 322.569 119.089,322.952 119.208,322.964 119.352 C 322.975 119.496,323.036 121.270,323.099 123.292 C 323.241 127.869,323.142 127.390,324.142 128.316 C 324.925 129.042,325.001 129.404,325.105 132.941 L 325.219 136.778 326.182 136.888 L 327.145 136.999 327.145 141.004 L 327.145 145.009 328.021 145.009 C 328.503 145.009,328.911 145.127,328.928 145.271 C 328.945 145.416,329.002 147.347,329.054 149.562 C 329.183 155.012,329.137 154.775,330.123 155.023 C 330.990 155.240,330.998 155.280,330.998 159.066 L 330.998 162.890 332.049 163.100 L 333.100 163.310 333.100 167.750 C 333.100 172.370,333.290 173.030,334.621 173.030 C 335.245 173.030,335.283 173.208,335.078 175.169 C 334.706 178.726,335.124 181.086,336.125 181.086 C 336.944 181.086,336.953 181.124,336.953 184.902 C 336.953 188.658,336.969 188.735,338.004 189.842 C 339.465 191.407,339.525 193.447,338.105 193.281 C 337.426 193.201,337.097 192.920,336.951 192.294 L 336.746 191.419 313.995 191.419 L 291.243 191.419 291.270 192.194 C 291.304 193.197,289.343 193.536,285.401 193.207 C 281.249 192.861,279.159 193.215,279.159 194.266 L 279.159 195.096 273.759 195.096 C 267.847 195.096,267.250 195.197,267.250 196.196 C 267.250 197.091,266.962 197.162,262.872 197.276 C 260.385 197.345,259.357 197.500,259.326 197.811 C 259.302 198.052,259.262 198.480,259.238 198.763 C 259.203 199.175,258.415 199.296,255.254 199.376 C 251.339 199.474,251.313 199.480,251.211 200.353 C 251.111 201.210,251.042 201.230,248.234 201.228 L 245.359 201.226 245.248 202.189 L 245.137 203.152 241.810 203.152 C 238.227 203.152,237.128 203.484,237.128 204.566 C 237.128 205.196,236.877 205.254,234.151 205.254 L 231.173 205.254 231.173 206.344 C 231.173 207.425,231.160 207.433,229.685 207.236 C 227.315 206.920,225.416 207.389,225.282 208.323 C 225.182 209.025,224.971 209.107,223.259 209.107 C 221.416 209.107,221.341 209.144,221.138 210.158 C 220.930 211.197,220.903 211.209,218.520 211.252 C 215.291 211.311,215.243 211.319,215.193 211.821 C 215.169 212.062,215.129 212.496,215.105 212.785 C 215.072 213.183,214.593 213.310,213.126 213.310 C 211.295 213.310,211.181 213.362,210.998 214.273 C 210.817 215.181,210.701 215.235,208.993 215.204 C 206.753 215.164,205.591 215.563,205.359 216.450 C 205.214 217.005,204.816 217.149,203.203 217.234 C 201.752 217.310,201.213 217.478,201.179 217.863 C 201.153 218.152,201.113 218.578,201.091 218.808 C 201.067 219.061,200.318 219.270,199.212 219.334 C 198.062 219.400,197.357 219.604,197.329 219.877 C 197.305 220.118,197.266 220.525,197.242 220.781 C 197.218 221.037,196.922 221.245,196.585 221.244 C 194.204 221.233,193.668 221.392,193.362 222.198 C 192.803 223.667,189.065 223.628,188.855 222.152 C 188.743 221.365,188.000 221.158,185.727 221.280 C 185.079 221.315,184.939 221.140,184.939 220.294 C 184.939 219.281,184.908 219.264,183.036 219.264 C 181.220 219.264,181.127 219.220,181.022 218.301 C 180.917 217.389,180.803 217.332,178.897 217.233 C 177.048 217.137,176.883 217.061,176.883 216.308 C 176.883 215.317,176.184 215.111,173.117 215.197 C 170.942 215.257,170.928 215.252,170.928 214.284 C 170.928 213.340,170.871 213.310,169.046 213.310 C 167.256 213.310,167.153 213.261,166.963 212.311 C 166.766 211.323,166.731 211.311,164.051 211.240 C 161.251 211.166,160.629 211.021,160.941 210.515 C 161.470 209.659,160.644 209.107,158.831 209.107 C 157.166 209.107,156.954 209.023,156.854 208.322 C 156.728 207.434,154.208 206.848,152.128 207.223 C 151.110 207.407,151.007 207.340,150.902 206.426 C 150.788 205.430,150.786 205.429,147.902 205.327 C 145.197 205.232,145.002 205.173,144.807 204.397 C 144.545 203.352,143.818 203.163,140.041 203.157 L 136.999 203.152 136.888 202.189 C 136.778 201.226,136.778 201.226,133.914 201.226 C 131.071 201.226,131.050 201.219,130.858 200.263 L 130.665 199.299 126.827 199.299 L 122.989 199.299 122.878 198.336 C 122.753 197.249,122.935 197.293,118.324 197.238 L 114.933 197.198 114.822 196.235 L 114.711 195.271 109.743 195.174 C 104.909 195.080,104.772 195.056,104.664 194.299 C 104.523 193.308,101.812 192.911,97.309 193.222 C 93.013 193.518,91.196 193.199,90.920 192.100 L 90.703 191.238 68.907 191.328 L 47.110 191.419 47.220 192.207 C 47.320 192.923,47.187 192.995,45.760 192.995 C 44.897 192.995,43.930 193.095,43.611 193.217 C 43.130 193.402,43.050 193.237,43.144 192.254 C 43.232 191.334,43.434 191.043,44.046 190.956 C 44.820 190.846,44.834 190.758,44.834 185.965 L 44.834 181.086 45.884 181.086 L 46.935 181.086 46.935 177.081 L 46.935 173.076 47.898 172.965 L 48.862 172.855 48.959 168.061 L 49.056 163.267 50.010 163.157 L 50.963 163.047 51.062 159.130 C 51.156 155.386,51.195 155.207,51.938 155.102 C 52.683 154.996,52.719 154.824,52.813 150.876 C 52.905 147.031,52.958 146.760,53.610 146.760 C 54.668 146.760,54.991 145.407,54.991 140.981 L 54.991 136.999 55.954 136.888 L 56.918 136.778 57.017 132.860 C 57.111 129.116,57.150 128.938,57.892 128.832 C 58.646 128.725,58.672 128.578,58.766 123.905 L 58.864 119.089 59.905 119.089 L 60.946 119.089 60.946 115.061 C 60.946 111.046,60.948 111.033,61.784 111.033 C 62.936 111.033,63.047 110.553,63.047 105.576 L 63.047 101.226 63.885 101.226 C 65.006 101.226,65.149 100.712,65.149 96.682 C 65.149 93.309,65.165 93.242,66.025 93.026 C 66.899 92.806,66.900 92.802,66.900 88.489 C 66.900 84.069,67.226 83.012,68.592 83.012 C 68.881 83.012,69.002 81.829,69.002 78.984 C 69.002 74.969,69.004 74.956,69.840 74.956 C 70.961 74.956,71.103 74.443,71.103 70.399 C 71.103 67.088,71.135 66.944,71.891 66.837 C 72.659 66.728,72.682 66.602,72.777 61.931 L 72.874 57.137 73.828 57.028 L 74.781 56.918 74.878 51.923 C 74.932 49.176,74.853 46.949,74.703 46.973 C 73.585 47.157,72.892 46.858,72.791 46.147 C 72.681 45.370,72.597 45.358,66.801 45.263 C 60.993 45.168,60.918 45.157,60.609 44.344 C 60.181 43.219,52.307 42.381,51.331 43.356 M227.149 257.381 C 227.051 257.479,226.970 263.365,226.970 270.461 L 226.970 283.363 225.919 283.363 C 224.985 283.363,224.869 283.246,224.869 282.312 C 224.869 281.273,224.847 281.261,222.965 281.261 C 221.150 281.261,221.057 281.217,220.951 280.298 C 220.848 279.402,220.705 279.322,218.914 279.159 C 217.322 279.015,217.006 278.877,217.091 278.369 C 217.287 277.206,214.708 277.035,202.189 277.377 C 201.217 277.404,201.051 277.536,201.051 278.284 C 201.051 279.109,200.943 279.159,199.168 279.159 C 197.356 279.159,197.278 279.199,197.075 280.210 C 196.906 281.056,196.676 281.271,195.893 281.313 C 194.016 281.413,193.867 281.439,193.402 281.738 C 193.144 281.905,193.012 282.338,193.107 282.702 C 193.247 283.237,193.087 283.363,192.261 283.363 C 191.421 283.363,191.236 283.515,191.200 284.238 C 191.176 284.720,191.116 285.429,191.068 285.814 C 191.020 286.200,190.961 286.673,190.937 286.865 C 190.913 287.058,190.499 287.215,190.018 287.215 C 189.282 287.215,189.142 287.380,189.142 288.243 C 189.142 289.103,188.985 289.288,188.179 289.381 C 187.649 289.442,187.196 289.689,187.172 289.930 C 187.148 290.171,187.108 290.998,187.084 291.769 C 187.054 292.729,186.883 293.170,186.540 293.170 C 185.093 293.170,185.022 293.715,185.013 304.975 C 185.004 316.913,185.002 316.898,186.094 317.053 C 186.756 317.147,186.890 317.435,187.040 319.089 C 187.203 320.880,187.283 321.024,188.179 321.127 C 188.985 321.219,189.142 321.404,189.142 322.265 C 189.142 323.127,189.282 323.292,190.018 323.292 C 190.608 323.292,190.902 323.492,190.919 323.905 C 190.953 324.700,191.208 326.150,191.412 326.708 C 191.511 326.979,192.243 327.145,193.334 327.145 C 195.050 327.145,195.096 327.173,195.096 328.173 C 195.096 329.029,195.254 329.219,196.046 329.311 C 196.725 329.391,197.053 329.671,197.198 330.298 C 197.379 331.075,197.607 331.185,199.226 331.279 C 200.900 331.376,201.051 331.456,201.051 332.242 L 201.051 333.100 209.982 333.100 L 218.914 333.100 218.914 332.224 C 218.914 331.426,219.054 331.345,220.490 331.305 C 222.819 331.240,222.938 331.213,222.986 330.736 C 223.010 330.495,223.049 330.061,223.074 329.772 C 223.105 329.391,223.543 329.247,224.673 329.247 C 225.528 329.247,226.334 329.076,226.464 328.866 C 226.633 328.592,226.806 328.592,227.080 328.866 C 227.289 329.076,227.823 329.247,228.266 329.247 C 228.928 329.247,229.072 329.435,229.072 330.298 C 229.072 331.232,229.189 331.349,230.123 331.349 C 231.010 331.349,231.173 331.485,231.173 332.224 L 231.173 333.100 235.026 333.100 L 238.879 333.100 238.879 328.196 L 238.879 323.292 238.005 323.292 L 237.131 323.292 237.042 290.280 L 236.953 257.268 232.141 257.235 C 229.494 257.216,227.248 257.282,227.149 257.381 M15.259 259.508 C 15.152 259.681,15.104 276.270,15.151 296.373 L 15.236 332.925 21.016 332.925 L 26.795 332.925 26.887 320.053 L 26.979 307.180 35.890 307.180 L 44.802 307.180 44.986 308.319 C 45.087 308.945,45.213 309.851,45.265 310.333 C 45.317 310.814,45.595 311.230,45.884 311.256 C 46.173 311.282,46.590 311.321,46.809 311.343 C 47.054 311.368,47.161 311.879,47.086 312.658 C 46.936 314.206,47.431 315.236,48.325 315.236 C 48.790 315.236,49.024 315.526,49.101 316.200 C 49.188 316.951,49.420 317.187,50.158 317.272 C 51.032 317.373,51.111 317.517,51.208 319.184 C 51.301 320.780,51.414 321.011,52.189 321.194 C 52.829 321.345,53.065 321.632,53.065 322.259 C 53.065 322.931,53.270 323.141,54.010 323.226 C 54.886 323.328,54.964 323.470,55.061 325.153 C 55.159 326.845,55.233 326.978,56.130 327.081 C 56.936 327.174,57.093 327.359,57.093 328.219 C 57.093 329.132,57.213 329.247,58.164 329.247 C 58.754 329.247,59.148 329.388,59.042 329.561 C 58.935 329.734,58.947 330.601,59.069 331.487 L 59.290 333.100 64.984 333.100 C 71.251 333.100,71.103 333.154,71.103 330.838 C 71.103 328.651,70.720 327.540,69.925 327.427 C 69.403 327.353,69.143 327.029,69.066 326.357 C 68.974 325.555,68.787 325.394,67.945 325.394 C 66.961 325.394,66.932 325.342,66.830 323.380 C 66.737 321.596,66.635 321.353,65.937 321.254 C 65.374 321.174,65.149 320.906,65.149 320.314 C 65.149 319.479,64.096 318.833,63.418 319.252 C 63.223 319.372,63.039 318.612,62.977 317.435 C 62.878 315.528,62.818 315.405,61.926 315.302 C 61.051 315.201,60.973 315.059,60.876 313.376 C 60.778 311.695,60.700 311.551,59.829 311.450 C 59.101 311.366,58.862 311.127,58.778 310.399 C 58.701 309.731,58.440 309.425,57.881 309.345 C 57.220 309.251,57.093 309.016,57.093 307.885 C 57.093 305.980,56.801 305.437,55.742 305.372 C 55.233 305.341,55.683 305.222,56.743 305.109 C 58.381 304.934,58.685 304.789,58.778 304.137 C 58.855 303.600,59.170 303.337,59.829 303.261 C 60.563 303.176,60.795 302.940,60.881 302.189 C 60.974 301.382,61.159 301.226,62.020 301.226 C 62.928 301.226,63.047 301.104,63.047 300.175 C 63.047 299.241,63.164 299.124,64.098 299.124 C 64.973 299.124,65.149 298.984,65.149 298.287 C 65.149 297.685,65.396 297.387,66.025 297.229 C 66.825 297.028,66.900 296.845,66.900 295.090 C 66.900 293.474,67.000 293.170,67.531 293.170 C 68.919 293.170,69.002 292.641,69.002 283.818 L 69.002 275.306 67.965 275.306 L 66.929 275.306 66.827 272.417 C 66.733 269.747,66.667 269.519,65.958 269.418 C 65.421 269.342,65.159 269.026,65.082 268.367 C 64.998 267.640,64.760 267.401,64.032 267.317 C 63.304 267.233,63.065 266.994,62.981 266.266 C 62.896 265.532,62.659 265.300,61.909 265.213 C 61.162 265.127,60.946 264.917,60.946 264.278 C 60.946 263.650,60.700 263.399,59.916 263.227 C 59.215 263.073,58.852 262.757,58.778 262.236 C 58.677 261.530,58.446 261.463,55.779 261.369 L 52.890 261.268 52.890 260.231 L 52.890 259.194 34.171 259.194 C 23.525 259.194,15.369 259.330,15.259 259.508 M251.372 259.428 C 251.243 259.556,251.138 276.190,251.138 296.391 L 251.138 333.120 255.954 333.022 L 260.771 332.925 260.949 308.406 C 261.048 294.921,261.166 284.164,261.212 284.501 C 261.267 284.899,261.603 285.114,262.172 285.114 C 262.911 285.114,263.047 285.277,263.047 286.165 C 263.047 287.099,263.164 287.215,264.098 287.215 C 265.138 287.215,265.149 287.235,265.149 289.142 C 265.149 291.015,265.176 291.068,266.123 291.068 C 267.063 291.068,267.094 291.126,267.002 292.700 C 266.899 294.472,267.316 295.271,268.344 295.271 C 268.876 295.271,269.002 295.535,269.002 296.644 C 269.002 298.552,269.293 299.124,270.265 299.124 C 270.963 299.124,271.103 299.300,271.103 300.175 C 271.103 301.055,271.242 301.226,271.955 301.226 C 272.835 301.226,273.465 302.273,273.019 302.994 C 272.528 303.789,273.189 305.079,274.087 305.079 C 274.908 305.079,274.956 305.187,274.956 307.014 C 274.956 308.884,274.992 308.956,276.007 309.159 C 276.894 309.337,277.064 309.540,277.095 310.464 C 277.177 312.886,277.207 312.957,278.196 313.071 C 278.997 313.163,279.159 313.350,279.159 314.186 C 279.159 315.012,279.325 315.210,280.093 315.301 C 280.956 315.403,281.030 315.542,281.075 317.163 L 281.125 318.914 286.097 319.011 L 291.068 319.109 291.068 317.196 C 291.068 315.369,291.112 315.278,292.032 315.172 C 292.561 315.111,293.014 314.864,293.039 314.623 C 293.063 314.383,293.102 313.960,293.126 313.685 C 293.150 313.409,293.525 313.133,293.958 313.072 C 294.642 312.975,294.760 312.722,294.851 311.161 C 294.948 309.482,295.023 309.349,295.989 309.156 C 296.982 308.957,297.023 308.874,297.023 307.037 C 297.023 305.212,297.066 305.120,297.986 305.015 C 298.976 304.901,299.014 304.816,299.084 302.539 C 299.120 301.383,299.229 301.226,300.000 301.226 C 300.739 301.226,300.876 301.062,300.876 300.175 C 300.876 299.300,301.016 299.124,301.714 299.124 C 302.686 299.124,302.977 298.552,302.977 296.644 C 302.977 295.556,303.108 295.271,303.608 295.271 C 304.644 295.271,305.079 294.527,305.079 292.750 C 305.079 291.190,305.142 291.068,305.954 291.068 C 306.782 291.068,306.830 290.963,306.830 289.142 C 306.830 287.235,306.841 287.215,307.881 287.215 C 308.815 287.215,308.932 287.099,308.932 286.165 C 308.932 285.287,309.071 285.114,309.778 285.114 C 310.244 285.114,310.704 284.917,310.801 284.676 C 310.898 284.435,311.007 294.877,311.043 307.881 C 311.079 320.884,311.130 331.839,311.158 332.224 C 311.205 332.883,311.494 332.930,316.025 333.022 L 320.841 333.120 320.841 296.157 L 320.841 259.194 315.937 259.194 L 311.033 259.194 311.033 261.285 C 311.033 263.007,310.940 263.340,310.503 263.172 C 309.816 262.909,308.932 263.651,308.932 264.491 C 308.932 264.853,308.695 265.149,308.406 265.149 C 308.117 265.149,307.881 265.316,307.881 265.520 C 307.881 265.724,307.723 265.793,307.531 265.674 C 307.320 265.544,307.180 266.011,307.180 266.851 C 307.180 268.780,306.892 269.352,305.917 269.352 C 305.135 269.352,305.079 269.480,305.079 271.278 C 305.079 273.185,305.068 273.205,304.028 273.205 C 303.094 273.205,302.977 273.322,302.977 274.256 C 302.977 275.078,302.823 275.306,302.266 275.306 C 301.437 275.306,301.231 275.718,301.127 277.587 C 301.063 278.727,300.906 278.987,300.175 279.158 C 299.384 279.343,299.289 279.557,299.194 281.363 C 299.092 283.320,299.067 283.363,298.056 283.363 C 297.039 283.363,297.023 283.392,297.023 285.266 C 297.023 287.080,296.978 287.174,296.062 287.280 C 295.301 287.367,295.101 287.573,295.099 288.266 C 295.097 288.918,294.873 289.187,294.221 289.320 C 293.301 289.508,293.283 289.550,293.214 291.746 C 293.175 292.975,293.066 293.135,292.207 293.234 C 291.184 293.352,291.180 293.362,291.112 295.797 C 291.070 297.305,291.023 297.373,290.018 297.373 C 288.977 297.373,288.967 297.392,288.967 299.299 C 288.967 301.098,288.911 301.226,288.129 301.226 C 287.250 301.226,286.758 301.940,287.072 302.759 C 287.198 303.087,286.919 303.292,286.203 303.397 C 285.243 303.538,285.139 303.456,285.044 302.476 C 284.958 301.595,284.765 301.381,283.975 301.290 C 283.056 301.184,283.012 301.092,283.012 299.276 C 283.012 297.402,282.996 297.373,281.979 297.373 C 280.967 297.373,280.944 297.332,280.841 295.359 C 280.750 293.628,280.633 293.330,280.009 293.241 C 279.431 293.159,279.215 292.763,278.958 291.315 C 278.694 289.829,278.492 289.472,277.867 289.383 C 277.330 289.307,277.068 288.991,276.991 288.332 C 276.907 287.599,276.670 287.366,275.919 287.280 C 275.000 287.174,274.956 287.082,274.956 285.266 C 274.956 283.392,274.940 283.363,273.923 283.363 C 272.911 283.363,272.887 283.321,272.785 281.349 C 272.694 279.618,272.577 279.320,271.953 279.231 C 271.375 279.148,271.159 278.753,270.902 277.304 C 270.635 275.800,270.440 275.462,269.790 275.370 C 269.177 275.283,269.002 275.029,269.002 274.231 C 269.002 273.324,268.879 273.205,267.951 273.205 C 266.911 273.205,266.900 273.185,266.900 271.278 C 266.900 269.457,266.852 269.352,266.025 269.352 C 265.234 269.352,265.149 269.213,265.149 267.928 C 265.149 266.160,264.635 265.149,263.735 265.149 C 263.194 265.149,263.046 264.907,263.043 264.011 C 263.034 262.034,262.691 261.296,261.781 261.296 C 261.086 261.296,260.946 261.119,260.946 260.245 L 260.946 259.194 256.276 259.194 C 253.707 259.194,251.500 259.299,251.372 259.428 M49.240 270.140 C 49.214 270.858,49.392 270.938,51.236 271.034 C 52.412 271.095,53.172 271.279,53.052 271.474 C 52.633 272.153,53.279 273.205,54.116 273.205 C 54.760 273.205,54.969 273.420,55.056 274.168 C 55.143 274.925,55.373 275.155,56.130 275.242 C 57.049 275.348,57.093 275.440,57.093 277.256 C 57.093 279.137,57.105 279.159,58.144 279.159 L 59.194 279.159 59.194 283.164 L 59.194 287.169 58.231 287.280 C 57.336 287.383,57.256 287.527,57.093 289.315 C 56.928 291.130,56.857 291.250,55.867 291.420 C 55.289 291.519,54.856 291.717,54.904 291.860 C 55.163 292.627,54.897 293.118,54.116 293.314 C 53.476 293.474,53.240 293.768,53.240 294.402 C 53.240 295.134,53.074 295.271,52.189 295.271 C 51.255 295.271,51.138 295.388,51.138 296.322 L 51.138 297.373 39.054 297.373 L 26.970 297.373 26.970 283.363 L 26.970 269.352 38.119 269.352 L 49.268 269.352 49.240 270.140 M93.757 277.346 C 93.403 277.414,93.170 277.792,93.170 278.295 C 93.170 279.100,93.063 279.135,90.295 279.233 C 87.564 279.329,87.410 279.378,87.217 280.198 C 87.015 281.060,85.235 281.770,84.238 281.387 C 83.666 281.168,82.890 282.188,83.137 282.833 C 83.291 283.232,83.085 283.363,82.301 283.363 C 81.311 283.363,81.010 283.874,81.219 285.201 C 81.242 285.346,81.143 285.445,80.998 285.423 C 79.411 285.172,79.159 285.442,79.159 287.391 C 79.159 289.298,79.149 289.317,78.109 289.317 C 77.175 289.317,77.058 289.434,77.058 290.368 C 77.058 291.262,76.924 291.419,76.161 291.419 C 75.653 291.419,75.359 291.570,75.482 291.769 C 75.601 291.961,75.531 292.119,75.327 292.119 C 75.099 292.119,74.956 293.131,74.956 294.746 C 74.956 297.285,74.928 297.373,74.116 297.373 C 73.058 297.373,72.800 299.552,72.955 307.182 C 73.063 312.555,73.192 313.135,74.276 313.135 C 74.884 313.135,74.956 313.393,74.956 315.558 C 74.956 318.542,75.152 319.089,76.220 319.089 C 77.060 319.089,77.300 319.874,77.112 322.009 C 77.075 322.429,77.420 322.790,78.107 323.049 C 78.858 323.332,79.159 323.678,79.159 324.254 C 79.159 324.869,79.407 325.111,80.199 325.269 C 80.997 325.429,81.220 325.650,81.162 326.224 C 81.103 326.801,81.304 326.995,82.049 327.081 C 82.687 327.154,83.012 327.397,83.012 327.799 C 83.012 328.815,83.770 329.247,85.555 329.247 C 86.610 329.247,87.174 329.381,87.038 329.600 C 86.394 330.643,87.252 331.349,89.165 331.349 C 90.965 331.349,91.068 331.396,91.068 332.230 L 91.068 333.111 100.963 333.018 L 110.858 332.925 110.970 332.137 C 111.070 331.430,111.278 331.349,112.984 331.349 C 114.864 331.349,114.886 331.336,114.886 330.298 C 114.886 329.269,114.923 329.247,116.656 329.247 C 118.307 329.247,118.450 329.177,118.792 328.196 C 119.058 327.433,119.382 327.145,119.976 327.145 C 120.605 327.145,120.820 326.926,120.905 326.196 C 120.984 325.516,121.265 325.189,121.891 325.043 C 122.669 324.863,122.779 324.635,122.873 323.016 C 122.958 321.553,123.100 321.191,123.591 321.191 C 124.476 321.191,125.044 320.491,125.044 319.398 C 125.044 317.473,124.836 317.338,121.877 317.338 C 119.147 317.338,119.135 317.334,119.025 316.375 C 118.922 315.479,118.788 315.404,117.104 315.307 C 115.278 315.201,114.401 315.920,115.059 316.985 C 115.188 317.193,114.838 317.338,114.206 317.338 C 113.255 317.338,113.135 317.453,113.135 318.366 C 113.135 319.226,112.978 319.411,112.172 319.504 C 111.479 319.584,111.208 319.811,111.208 320.315 C 111.208 320.821,110.916 321.065,110.158 321.193 C 109.255 321.346,109.121 321.506,109.208 322.332 C 109.308 323.284,109.291 323.292,107.194 323.292 L 105.079 323.292 105.079 324.343 L 105.079 325.394 101.051 325.394 L 97.023 325.394 97.023 324.343 C 97.023 323.306,96.998 323.292,95.140 323.292 C 93.328 323.292,93.250 323.253,93.047 322.242 C 92.882 321.416,92.652 321.191,91.977 321.191 C 91.357 321.191,91.086 320.975,91.005 320.417 C 90.934 319.928,90.572 319.569,90.018 319.440 C 89.391 319.295,89.110 318.967,89.031 318.287 C 88.939 317.496,88.749 317.338,87.893 317.338 C 86.882 317.338,86.865 317.306,86.865 315.436 C 86.865 313.730,86.784 313.522,86.077 313.422 C 85.379 313.323,85.277 313.080,85.184 311.299 L 85.079 309.287 106.025 309.197 L 126.970 309.107 127.024 302.452 C 127.089 294.348,126.993 293.583,125.879 293.304 C 125.182 293.129,125.044 292.874,125.044 291.760 C 125.044 289.889,124.748 289.317,123.780 289.317 C 123.083 289.317,122.942 289.141,122.942 288.266 C 122.942 287.332,122.825 287.215,121.891 287.215 C 120.957 287.215,120.841 287.099,120.841 286.165 C 120.841 285.587,120.722 285.133,120.578 285.155 C 119.543 285.319,119.089 285.039,119.089 284.238 C 119.089 283.499,118.926 283.363,118.039 283.363 C 117.104 283.363,116.988 283.246,116.988 282.312 C 116.988 281.378,116.871 281.261,115.937 281.261 C 115.063 281.261,114.886 281.120,114.886 280.426 C 114.886 279.413,114.162 279.171,111.121 279.164 C 109.021 279.160,108.932 279.124,108.932 278.284 C 108.932 277.619,108.742 277.400,108.144 277.376 C 105.641 277.275,94.250 277.251,93.757 277.346 M148.424 277.342 C 147.295 277.435,147.110 277.570,147.110 278.305 C 147.110 279.144,147.056 279.159,144.133 279.159 L 141.156 279.159 141.156 280.210 C 141.156 281.219,141.094 281.261,139.608 281.261 C 137.522 281.261,136.953 281.532,136.953 282.524 C 136.953 283.308,136.826 283.363,135.008 283.363 L 133.063 283.363 133.169 285.201 C 133.269 286.934,133.333 287.047,134.274 287.155 C 135.234 287.264,135.265 287.325,135.063 288.731 C 134.737 290.997,134.934 291.108,139.083 290.994 C 142.534 290.899,142.738 290.852,142.841 290.126 C 142.918 289.589,143.233 289.327,143.892 289.251 C 144.626 289.166,144.858 288.929,144.944 288.179 L 145.055 287.215 148.009 287.215 L 150.963 287.215 150.963 286.165 C 150.963 284.581,155.049 284.497,155.231 286.077 C 155.340 287.031,155.370 287.041,158.209 287.142 C 161.038 287.242,161.078 287.256,161.186 288.192 C 161.263 288.859,161.524 289.174,162.063 289.251 C 162.540 289.319,162.870 289.649,162.938 290.127 C 163.015 290.664,163.330 290.926,163.994 291.002 C 164.884 291.105,164.946 291.230,165.044 293.104 C 165.143 294.987,165.202 295.102,166.112 295.207 C 167.074 295.318,167.075 295.322,167.035 298.009 C 167.012 299.489,166.925 300.443,166.842 300.128 C 166.618 299.287,165.834 299.237,153.940 299.306 L 143.082 299.368 143.183 300.297 L 143.284 301.226 140.438 301.226 C 137.598 301.226,137.592 301.228,137.196 302.277 C 136.915 303.021,136.566 303.327,136.000 303.327 C 135.380 303.327,135.201 303.525,135.201 304.212 C 135.201 304.914,134.985 305.140,134.151 305.306 C 133.373 305.462,133.100 305.713,133.100 306.272 C 133.100 306.789,132.769 307.152,132.049 307.423 L 130.998 307.820 130.998 315.878 C 130.998 324.718,131.043 325.044,132.262 325.044 C 132.959 325.044,133.100 325.220,133.100 326.095 C 133.100 327.037,133.212 327.145,134.188 327.145 C 135.012 327.145,135.227 327.273,135.075 327.671 C 134.748 328.522,135.216 329.247,136.091 329.247 C 136.720 329.247,136.932 329.467,137.017 330.210 C 137.122 331.122,137.235 331.179,139.142 331.278 C 141.017 331.376,141.156 331.443,141.156 332.242 L 141.156 333.100 150.088 333.100 L 159.019 333.100 159.019 332.224 C 159.019 331.402,160.621 330.993,162.609 331.307 C 162.754 331.330,162.872 330.890,162.872 330.329 C 162.872 329.324,162.905 329.307,165.061 329.188 C 168.591 328.992,169.177 329.156,169.177 330.337 C 169.177 331.170,169.325 331.349,170.015 331.349 C 170.848 331.349,171.461 332.171,171.084 332.781 C 170.970 332.966,172.593 333.100,174.936 333.100 L 178.984 333.100 178.984 328.196 L 178.984 323.292 177.933 323.292 L 176.883 323.292 176.883 307.356 L 176.883 291.419 176.007 291.419 C 175.196 291.419,175.128 291.290,175.088 289.667 C 175.063 288.704,175.004 287.758,174.956 287.566 C 174.908 287.373,174.849 286.832,174.825 286.364 C 174.794 285.765,174.548 285.480,173.993 285.401 C 173.429 285.321,173.173 285.015,173.094 284.326 C 173.002 283.525,172.814 283.363,171.979 283.363 C 171.144 283.363,170.956 283.200,170.864 282.399 C 170.761 281.503,170.628 281.429,168.936 281.331 C 167.253 281.234,167.110 281.156,167.009 280.280 C 166.907 279.389,166.783 279.328,164.886 279.229 C 163.011 279.132,162.872 279.065,162.872 278.266 C 162.872 277.542,162.694 277.400,161.734 277.357 C 159.332 277.249,149.675 277.238,148.424 277.342 M350.372 277.341 C 349.531 277.422,349.228 277.639,349.146 278.217 C 349.050 278.890,348.790 278.997,347.023 279.089 C 345.058 279.192,345.009 279.219,345.009 280.209 C 345.009 281.187,344.941 281.228,343.170 281.330 C 341.466 281.428,341.323 281.505,341.222 282.378 C 341.139 283.102,340.898 283.345,340.185 283.429 C 339.528 283.506,339.197 283.793,339.052 284.413 C 338.940 284.895,338.658 285.309,338.426 285.333 C 338.193 285.357,337.767 285.396,337.478 285.420 C 337.163 285.447,336.953 285.814,336.953 286.340 C 336.953 287.033,336.776 287.215,336.105 287.215 C 335.452 287.215,335.205 287.452,335.031 288.245 C 334.877 288.946,334.561 289.309,334.040 289.383 C 333.386 289.476,333.260 289.748,333.172 291.260 C 333.078 292.859,332.969 293.066,332.028 293.421 L 330.989 293.813 331.081 305.297 L 331.173 316.781 332.049 316.986 C 332.821 317.167,332.945 317.417,333.100 319.103 C 333.248 320.723,333.390 321.032,334.023 321.122 C 334.533 321.195,334.837 321.558,334.978 322.261 C 335.139 323.067,335.372 323.292,336.045 323.292 C 336.724 323.292,336.930 323.496,337.017 324.256 C 337.104 325.012,337.335 325.243,338.091 325.330 C 338.848 325.417,339.054 325.623,339.054 326.293 C 339.054 327.007,339.225 327.145,340.105 327.145 C 341.039 327.145,341.156 327.262,341.156 328.196 C 341.156 329.083,341.292 329.247,342.032 329.247 C 342.668 329.247,342.907 329.435,342.907 329.935 C 342.907 330.831,343.916 331.349,345.662 331.349 C 346.847 331.349,347.079 331.469,347.174 332.137 L 347.285 332.925 357.180 333.018 L 367.075 333.111 367.075 332.230 C 367.075 331.409,367.192 331.349,368.783 331.349 C 371.555 331.349,372.663 331.011,372.892 330.098 C 373.030 329.547,373.394 329.253,374.026 329.179 C 374.747 329.096,374.981 328.856,375.067 328.109 C 375.154 327.352,375.361 327.145,376.030 327.145 C 376.700 327.145,376.883 326.962,376.883 326.293 C 376.883 325.623,377.089 325.417,377.846 325.330 C 378.602 325.243,378.833 325.012,378.920 324.256 C 378.995 323.600,379.233 323.292,379.665 323.292 C 380.781 323.292,381.125 322.432,381.015 319.909 L 380.911 317.513 378.918 317.409 C 377.044 317.311,376.919 317.248,376.817 316.358 C 376.711 315.438,376.638 315.409,374.165 315.309 C 371.625 315.206,370.747 315.743,370.974 317.263 C 371.141 318.382,370.835 319.037,370.053 319.233 C 369.413 319.394,369.177 319.687,369.177 320.322 C 369.177 321.116,369.044 321.191,367.626 321.191 C 366.041 321.191,364.974 321.835,364.974 322.792 C 364.974 323.245,363.153 323.526,361.559 323.319 C 361.292 323.284,361.121 323.678,361.121 324.328 L 361.121 325.394 358.171 325.394 L 355.222 325.394 354.991 324.343 C 354.769 323.333,354.687 323.292,352.862 323.292 C 351.208 323.292,350.963 323.204,350.963 322.604 C 350.963 321.733,349.964 321.191,348.359 321.191 C 347.270 321.191,347.110 321.082,347.110 320.339 C 347.110 319.470,346.066 318.827,345.362 319.263 C 345.143 319.398,345.009 318.834,345.009 317.779 C 345.009 315.992,344.577 315.236,343.556 315.236 C 343.064 315.236,342.923 314.874,342.838 313.398 C 342.746 311.796,342.631 311.544,341.944 311.447 C 341.332 311.360,341.156 311.106,341.156 310.311 L 341.156 309.287 362.960 309.197 L 384.764 309.107 384.764 303.327 L 384.764 297.548 383.800 297.437 L 382.837 297.326 382.837 294.373 C 382.837 291.455,382.826 291.419,381.961 291.419 C 381.222 291.419,381.086 291.255,381.086 290.368 C 381.086 289.438,380.967 289.317,380.053 289.317 C 379.056 289.317,379.017 289.255,378.915 287.492 C 378.821 285.881,378.708 285.644,377.946 285.466 C 377.405 285.339,377.008 284.941,376.882 284.401 C 376.740 283.794,376.404 283.505,375.752 283.429 C 375.039 283.345,374.798 283.102,374.715 282.378 C 374.603 281.411,374.525 281.380,372.090 281.298 C 371.145 281.267,370.958 281.114,370.864 280.298 C 370.754 279.343,370.727 279.334,367.863 279.233 C 365.055 279.134,364.974 279.107,364.974 278.270 C 364.974 277.696,364.769 277.397,364.361 277.374 C 362.588 277.275,351.330 277.248,350.372 277.341 M103.042 286.077 C 103.146 286.989,103.260 287.046,105.166 287.145 C 107.011 287.242,107.180 287.319,107.180 288.065 C 107.180 288.900,108.186 289.317,110.201 289.317 C 110.855 289.317,111.033 289.504,111.033 290.193 C 111.033 290.932,111.197 291.068,112.084 291.068 C 113.018 291.068,113.135 291.185,113.135 292.119 C 113.135 293.006,113.271 293.170,114.011 293.170 C 114.944 293.170,114.948 293.177,115.023 295.184 C 115.083 296.781,115.448 297.423,116.226 297.295 C 116.708 297.215,116.831 297.556,116.918 299.212 L 117.023 301.226 101.127 301.226 C 92.384 301.226,85.165 301.161,85.085 301.081 C 84.521 300.520,85.233 297.055,85.933 296.955 C 86.583 296.863,86.705 296.587,86.796 295.009 C 86.898 293.230,86.936 293.170,87.934 293.170 C 88.843 293.170,88.967 293.046,88.967 292.142 C 88.967 291.282,89.123 291.097,89.930 291.004 C 90.611 290.926,90.925 290.668,91.002 290.126 C 91.079 289.589,91.394 289.327,92.053 289.251 C 92.571 289.191,93.014 288.945,93.039 288.704 C 93.063 288.463,93.102 288.030,93.126 287.741 C 93.161 287.321,93.735 287.215,95.981 287.215 L 98.792 287.215 99.002 286.165 C 99.315 284.598,102.862 284.521,103.042 286.077 M359.084 286.077 C 359.193 287.031,359.223 287.041,362.062 287.142 C 364.891 287.242,364.931 287.256,365.039 288.192 C 365.124 288.928,365.361 289.166,366.090 289.251 C 366.750 289.327,367.065 289.589,367.141 290.126 C 367.218 290.668,367.533 290.926,368.214 291.004 C 369.020 291.097,369.177 291.282,369.177 292.142 C 369.177 293.005,369.318 293.170,370.053 293.170 C 370.882 293.170,370.987 293.315,371.069 294.571 C 371.089 294.872,371.514 295.144,372.067 295.207 C 373.018 295.317,373.030 295.348,373.030 297.852 C 373.030 299.355,373.201 300.556,373.450 300.806 C 373.777 301.133,370.235 301.226,357.513 301.226 L 341.156 301.226 341.156 300.199 C 341.156 299.402,341.331 299.148,341.944 299.061 C 342.679 298.957,342.739 298.754,342.834 296.060 L 342.936 293.170 343.972 293.170 C 344.890 293.170,345.009 293.050,345.009 292.119 C 345.009 291.185,345.126 291.068,346.060 291.068 C 346.637 291.068,347.092 290.950,347.069 290.806 C 346.881 289.613,347.162 289.317,348.483 289.317 C 350.391 289.317,350.963 289.026,350.963 288.054 C 350.963 287.250,351.064 287.215,353.386 287.215 C 356.370 287.215,356.918 287.020,356.918 285.952 C 356.918 284.617,358.929 284.733,359.084 286.077 M217.163 288.243 C 217.163 289.103,217.319 289.288,218.126 289.381 C 218.816 289.461,219.121 289.716,219.201 290.280 C 219.302 290.987,219.509 291.068,221.215 291.068 L 223.117 291.068 223.117 292.957 C 223.117 294.679,223.194 294.865,223.993 295.065 C 224.534 295.201,224.869 295.534,224.869 295.936 C 224.869 296.706,225.650 297.439,226.320 297.298 C 226.708 297.216,226.812 298.845,226.889 306.193 L 226.982 315.189 226.013 315.300 C 225.186 315.395,225.059 315.553,225.145 316.375 C 225.234 317.232,225.131 317.338,224.205 317.338 C 223.330 317.338,223.146 317.492,223.053 318.300 C 222.965 319.059,222.722 319.299,221.891 319.441 C 221.313 319.540,220.880 319.738,220.928 319.881 C 221.261 320.867,220.943 321.191,219.643 321.191 C 217.735 321.191,217.163 321.482,217.163 322.454 L 217.163 323.292 211.033 323.292 L 204.904 323.292 204.904 322.242 C 204.904 321.367,204.763 321.191,204.066 321.191 C 203.465 321.191,203.166 320.944,203.009 320.315 C 202.850 319.685,202.553 319.440,201.948 319.440 C 201.298 319.440,201.054 319.201,200.876 318.389 C 200.697 317.574,200.454 317.338,199.797 317.338 C 199.089 317.338,198.949 317.165,198.949 316.287 C 198.949 315.353,198.832 315.236,197.898 315.236 C 196.858 315.236,196.848 315.217,196.848 313.310 C 196.848 311.489,196.800 311.384,195.972 311.384 L 195.096 311.384 195.096 305.254 L 195.096 299.124 195.972 299.124 C 196.799 299.124,196.848 299.018,196.848 297.221 C 196.848 295.405,196.892 295.313,197.811 295.207 C 198.567 295.120,198.798 294.890,198.885 294.133 C 198.965 293.437,199.192 293.170,199.703 293.170 C 200.168 293.170,200.547 292.809,200.808 292.119 C 201.087 291.378,201.438 291.068,201.997 291.068 C 202.549 291.068,202.855 290.804,203.009 290.193 C 203.166 289.564,203.465 289.317,204.066 289.317 C 204.763 289.317,204.904 289.141,204.904 288.266 L 204.904 287.215 211.033 287.215 L 217.163 287.215 217.163 288.243 M163.222 308.019 C 163.222 308.991,163.794 309.282,165.703 309.282 L 167.075 309.282 167.075 313.310 L 167.075 317.338 166.025 317.338 C 165.164 317.338,164.974 317.483,164.974 318.137 C 164.974 318.708,164.665 319.052,163.893 319.344 C 163.026 319.671,162.858 319.894,163.041 320.471 C 163.248 321.122,163.124 321.191,161.737 321.191 C 159.959 321.191,158.801 321.868,159.126 322.716 C 159.324 323.232,157.118 323.601,155.429 323.334 C 155.285 323.311,155.166 323.765,155.166 324.343 L 155.166 325.394 151.162 325.394 L 147.157 325.394 147.046 324.431 C 146.959 323.674,146.729 323.444,145.972 323.357 C 145.276 323.277,145.009 323.050,145.009 322.538 C 145.009 322.074,144.648 321.694,143.958 321.434 C 143.214 321.153,142.907 320.804,142.907 320.238 C 142.907 319.620,142.710 319.440,142.032 319.440 L 141.156 319.440 141.156 315.412 L 141.156 311.384 142.032 311.384 C 142.768 311.384,142.907 311.219,142.907 310.350 C 142.907 309.338,142.948 309.315,144.921 309.212 C 146.828 309.112,146.941 309.055,147.046 308.144 L 147.157 307.180 155.190 307.180 L 163.222 307.180 163.222 308.019 " stroke="none" fill="#64dcfc" fill-rule="evenodd"></path><path id="path1" d="M86.961 23.468 C 86.961 24.335,87.029 24.689,87.112 24.256 C 87.196 23.822,87.196 23.113,87.112 22.680 C 87.029 22.246,86.961 22.601,86.961 23.468 M72.955 88.091 C 72.957 89.054,73.025 89.407,73.106 88.874 C 73.186 88.342,73.184 87.554,73.101 87.123 C 73.018 86.692,72.952 87.128,72.955 88.091 M38.960 109.282 C 38.960 109.956,39.033 110.232,39.121 109.895 C 39.209 109.558,39.209 109.006,39.121 108.669 C 39.033 108.332,38.960 108.608,38.960 109.282 M334.947 174.431 C 334.947 175.298,335.015 175.652,335.098 175.219 C 335.182 174.785,335.182 174.076,335.098 173.643 C 335.015 173.209,334.947 173.564,334.947 174.431 M93.792 193.252 C 94.616 193.326,95.877 193.325,96.594 193.249 C 97.312 193.174,96.637 193.114,95.096 193.115 C 93.555 193.116,92.968 193.178,93.792 193.252 M286.086 193.252 C 286.910 193.326,288.171 193.325,288.888 193.249 C 289.606 193.174,288.932 193.114,287.391 193.115 C 285.849 193.116,285.262 193.178,286.086 193.252 M42.432 213.277 C 42.080 213.496,42.063 213.638,42.368 213.827 C 42.848 214.124,43.209 213.861,43.031 213.343 C 42.958 213.131,42.711 213.104,42.432 213.277 M98.700 277.317 C 99.912 277.386,101.803 277.386,102.903 277.316 C 104.004 277.247,103.012 277.191,100.701 277.192 C 98.389 277.192,97.489 277.249,98.700 277.317 M153.678 277.311 C 154.304 277.389,155.328 277.389,155.954 277.311 C 156.581 277.233,156.068 277.170,154.816 277.170 C 153.564 277.170,153.052 277.233,153.678 277.311 M207.454 277.316 C 208.375 277.388,209.793 277.387,210.606 277.314 C 211.419 277.240,210.665 277.181,208.932 277.182 C 207.198 277.183,206.533 277.243,207.454 277.316 M355.443 277.317 C 356.654 277.386,358.546 277.386,359.646 277.316 C 360.746 277.247,359.755 277.191,357.443 277.192 C 355.131 277.192,354.231 277.249,355.443 277.317 M58.978 283.187 C 58.979 285.499,59.035 286.399,59.104 285.188 C 59.172 283.976,59.172 282.085,59.103 280.985 C 59.033 279.884,58.977 280.876,58.978 283.187 M150.685 299.384 C 151.977 299.451,154.184 299.451,155.589 299.385 C 156.994 299.318,155.937 299.263,153.240 299.263 C 150.543 299.262,149.393 299.317,150.685 299.384 " stroke="none" fill="#68dcfc" fill-rule="evenodd"></path><path id="path2" d="M86.961 23.468 C 86.961 24.335,87.029 24.689,87.112 24.256 C 87.196 23.822,87.196 23.113,87.112 22.680 C 87.029 22.246,86.961 22.601,86.961 23.468 M72.955 88.091 C 72.957 89.054,73.025 89.407,73.106 88.874 C 73.186 88.342,73.184 87.554,73.101 87.123 C 73.018 86.692,72.952 87.128,72.955 88.091 M38.960 109.282 C 38.960 109.956,39.033 110.232,39.121 109.895 C 39.209 109.558,39.209 109.006,39.121 108.669 C 39.033 108.332,38.960 108.608,38.960 109.282 M334.947 174.431 C 334.947 175.298,335.015 175.652,335.098 175.219 C 335.182 174.785,335.182 174.076,335.098 173.643 C 335.015 173.209,334.947 173.564,334.947 174.431 M93.792 193.252 C 94.616 193.326,95.877 193.325,96.594 193.249 C 97.312 193.174,96.637 193.114,95.096 193.115 C 93.555 193.116,92.968 193.178,93.792 193.252 M286.086 193.252 C 286.910 193.326,288.171 193.325,288.888 193.249 C 289.606 193.174,288.932 193.114,287.391 193.115 C 285.849 193.116,285.262 193.178,286.086 193.252 M42.432 213.277 C 42.080 213.496,42.063 213.638,42.368 213.827 C 42.848 214.124,43.209 213.861,43.031 213.343 C 42.958 213.131,42.711 213.104,42.432 213.277 M98.700 277.317 C 99.912 277.386,101.803 277.386,102.903 277.316 C 104.004 277.247,103.012 277.191,100.701 277.192 C 98.389 277.192,97.489 277.249,98.700 277.317 M153.678 277.311 C 154.304 277.389,155.328 277.389,155.954 277.311 C 156.581 277.233,156.068 277.170,154.816 277.170 C 153.564 277.170,153.052 277.233,153.678 277.311 M207.454 277.316 C 208.375 277.388,209.793 277.387,210.606 277.314 C 211.419 277.240,210.665 277.181,208.932 277.182 C 207.198 277.183,206.533 277.243,207.454 277.316 M355.443 277.317 C 356.654 277.386,358.546 277.386,359.646 277.316 C 360.746 277.247,359.755 277.191,357.443 277.192 C 355.131 277.192,354.231 277.249,355.443 277.317 M58.978 283.187 C 58.979 285.499,59.035 286.399,59.104 285.188 C 59.172 283.976,59.172 282.085,59.103 280.985 C 59.033 279.884,58.977 280.876,58.978 283.187 M150.685 299.384 C 151.977 299.451,154.184 299.451,155.589 299.385 C 156.994 299.318,155.937 299.263,153.240 299.263 C 150.543 299.262,149.393 299.317,150.685 299.384 " stroke="none" fill="#68dcfc" fill-rule="evenodd"></path><path id="path3" d="M86.961 23.468 C 86.961 24.335,87.029 24.689,87.112 24.256 C 87.196 23.822,87.196 23.113,87.112 22.680 C 87.029 22.246,86.961 22.601,86.961 23.468 M72.955 88.091 C 72.957 89.054,73.025 89.407,73.106 88.874 C 73.186 88.342,73.184 87.554,73.101 87.123 C 73.018 86.692,72.952 87.128,72.955 88.091 M38.960 109.282 C 38.960 109.956,39.033 110.232,39.121 109.895 C 39.209 109.558,39.209 109.006,39.121 108.669 C 39.033 108.332,38.960 108.608,38.960 109.282 M334.947 174.431 C 334.947 175.298,335.015 175.652,335.098 175.219 C 335.182 174.785,335.182 174.076,335.098 173.643 C 335.015 173.209,334.947 173.564,334.947 174.431 M93.792 193.252 C 94.616 193.326,95.877 193.325,96.594 193.249 C 97.312 193.174,96.637 193.114,95.096 193.115 C 93.555 193.116,92.968 193.178,93.792 193.252 M286.086 193.252 C 286.910 193.326,288.171 193.325,288.888 193.249 C 289.606 193.174,288.932 193.114,287.391 193.115 C 285.849 193.116,285.262 193.178,286.086 193.252 M42.432 213.277 C 42.080 213.496,42.063 213.638,42.368 213.827 C 42.848 214.124,43.209 213.861,43.031 213.343 C 42.958 213.131,42.711 213.104,42.432 213.277 M98.700 277.317 C 99.912 277.386,101.803 277.386,102.903 277.316 C 104.004 277.247,103.012 277.191,100.701 277.192 C 98.389 277.192,97.489 277.249,98.700 277.317 M153.678 277.311 C 154.304 277.389,155.328 277.389,155.954 277.311 C 156.581 277.233,156.068 277.170,154.816 277.170 C 153.564 277.170,153.052 277.233,153.678 277.311 M207.454 277.316 C 208.375 277.388,209.793 277.387,210.606 277.314 C 211.419 277.240,210.665 277.181,208.932 277.182 C 207.198 277.183,206.533 277.243,207.454 277.316 M355.443 277.317 C 356.654 277.386,358.546 277.386,359.646 277.316 C 360.746 277.247,359.755 277.191,357.443 277.192 C 355.131 277.192,354.231 277.249,355.443 277.317 M58.978 283.187 C 58.979 285.499,59.035 286.399,59.104 285.188 C 59.172 283.976,59.172 282.085,59.103 280.985 C 59.033 279.884,58.977 280.876,58.978 283.187 M150.685 299.384 C 151.977 299.451,154.184 299.451,155.589 299.385 C 156.994 299.318,155.937 299.263,153.240 299.263 C 150.543 299.262,149.393 299.317,150.685 299.384 " stroke="none" fill="#68dcfc" fill-rule="evenodd"></path><path id="path4" d="M86.961 23.468 C 86.961 24.335,87.029 24.689,87.112 24.256 C 87.196 23.822,87.196 23.113,87.112 22.680 C 87.029 22.246,86.961 22.601,86.961 23.468 M72.955 88.091 C 72.957 89.054,73.025 89.407,73.106 88.874 C 73.186 88.342,73.184 87.554,73.101 87.123 C 73.018 86.692,72.952 87.128,72.955 88.091 M38.960 109.282 C 38.960 109.956,39.033 110.232,39.121 109.895 C 39.209 109.558,39.209 109.006,39.121 108.669 C 39.033 108.332,38.960 108.608,38.960 109.282 M334.947 174.431 C 334.947 175.298,335.015 175.652,335.098 175.219 C 335.182 174.785,335.182 174.076,335.098 173.643 C 335.015 173.209,334.947 173.564,334.947 174.431 M93.792 193.252 C 94.616 193.326,95.877 193.325,96.594 193.249 C 97.312 193.174,96.637 193.114,95.096 193.115 C 93.555 193.116,92.968 193.178,93.792 193.252 M286.086 193.252 C 286.910 193.326,288.171 193.325,288.888 193.249 C 289.606 193.174,288.932 193.114,287.391 193.115 C 285.849 193.116,285.262 193.178,286.086 193.252 M42.432 213.277 C 42.080 213.496,42.063 213.638,42.368 213.827 C 42.848 214.124,43.209 213.861,43.031 213.343 C 42.958 213.131,42.711 213.104,42.432 213.277 M98.700 277.317 C 99.912 277.386,101.803 277.386,102.903 277.316 C 104.004 277.247,103.012 277.191,100.701 277.192 C 98.389 277.192,97.489 277.249,98.700 277.317 M153.678 277.311 C 154.304 277.389,155.328 277.389,155.954 277.311 C 156.581 277.233,156.068 277.170,154.816 277.170 C 153.564 277.170,153.052 277.233,153.678 277.311 M207.454 277.316 C 208.375 277.388,209.793 277.387,210.606 277.314 C 211.419 277.240,210.665 277.181,208.932 277.182 C 207.198 277.183,206.533 277.243,207.454 277.316 M355.443 277.317 C 356.654 277.386,358.546 277.386,359.646 277.316 C 360.746 277.247,359.755 277.191,357.443 277.192 C 355.131 277.192,354.231 277.249,355.443 277.317 M58.978 283.187 C 58.979 285.499,59.035 286.399,59.104 285.188 C 59.172 283.976,59.172 282.085,59.103 280.985 C 59.033 279.884,58.977 280.876,58.978 283.187 M150.685 299.384 C 151.977 299.451,154.184 299.451,155.589 299.385 C 156.994 299.318,155.937 299.263,153.240 299.263 C 150.543 299.262,149.393 299.317,150.685 299.384 " stroke="none" fill="#68dcfc" fill-rule="evenodd"></path></g></svg>